<?xml version="1.0" standalone="no"?>
<!DOCTYPE svg PUBLIC "-//W3C//DTD SVG 20010904//EN"
 "http://www.w3.org/TR/2001/REC-SVG-20010904/DTD/svg10.dtd">
<svg version="1.0" xmlns="http://www.w3.org/2000/svg"
 width="32.000000pt" height="32.000000pt" viewBox="0 0 32.000000 32.000000"
 preserveAspectRatio="xMidYMid meet">

<g transform="translate(0.000000,32.000000) scale(0.100000,-0.100000)"
fill="#000000" stroke="none">
<path d="M10 161 l0 -161 88 0 c114 0 166 24 200 90 28 56 28 84 -1 140 -33
66 -71 84 -189 88 l-98 4 0 -161z m200 101 c50 -24 76 -81 61 -131 -6 -21 -20
-46 -31 -56 -19 -17 -21 -16 -24 18 -1 7 -21 15 -46 18 l-45 6 47 1 c50 2 59
10 72 65 l6 27 -70 0 c-56 0 -70 3 -70 15 0 9 -9 15 -22 15 -20 -1 -21 -2 -6
-11 10 -6 22 -34 30 -69 l12 -60 39 0 c34 0 38 -2 27 -15 -10 -12 -9 -16 5
-21 31 -12 -6 -24 -77 -24 l-68 0 0 120 0 120 63 0 c39 0 75 -6 97 -18z m20
-76 c0 -36 -12 -46 -56 -46 -24 0 -44 3 -44 8 0 4 -3 17 -6 30 -6 21 -4 22 50
22 42 0 56 -4 56 -14z"/>
<path d="M110 75 c0 -8 7 -15 15 -15 8 0 15 7 15 15 0 8 -7 15 -15 15 -8 0
-15 -7 -15 -15z"/>
</g>
</svg>
